# xmcd
#
# Track frame offsets:
#	150
#	13061
#	39124
#	56170
#	78504
#	95722
#	109194
#	123446
#	143852
#	159220
#	172329
#	192281
#	217055
#	233932
#	260107
#	277169
#	306065
#	328871
#	350944
#
# Disc length: 4836 seconds
#
# Revision: 1
# Processed by: cddbd v1.5.1PL2 Copyright (c) Steve Scherf et al.
# Submitted via: audiograbber 1.83.01
#
DISCID=2c12e213
DTITLE=Peter Green - Music History [CD 1)
DYEAR=1900
DGENRE=Blues
TTITLE0=Black Magic Woman
TTITLE1=Got To See Her Tonight
TTITLE2=They're Red Hot
TTITLE3=Carry My Love
TTITLE4=Whatcha Gonna Do
TTITLE5=From Four Until Late
TTITLE6=Apostle
TTITLE7=Six String Guitar
TTITLE8=What Am I Doing Here
TTITLE9=Bandit
TTITLE10=Boogie All The Way
TTITLE11=Last Train To San Antone
TTITLE12=Hitch Hiking Woman
TTITLE13=Help Me
TTITLE14=In The Skies
TTITLE15=Look On Yonder Wall
TTITLE16=Cryin' Won't Bring You Back
TTITLE17=I Loved Another Woman
TTITLE18=Timeless Time
EXTD=Bootleg compilation
EXTT0=
EXTT1=
EXTT2=
EXTT3=
EXTT4=
EXTT5=
EXTT6=
EXTT7=
EXTT8=
EXTT9=
EXTT10=
EXTT11=
EXTT12=
EXTT13=
EXTT14=
EXTT15=
EXTT16=
EXTT17=
EXTT18=
PLAYORDER=
